<svg xmlns="http://www.w3.org/2000/svg" xmlns:xlink="http://www.w3.org/1999/xlink" width="500" zoomAndPan="magnify" viewBox="0 0 375 374.999991" height="500" preserveAspectRatio="xMidYMid meet" version="1.0"><defs><g/><clipPath id="2406951f30"><path d="M 161 78.050781 L 214 78.050781 L 214 152 L 161 152 Z M 161 78.050781 " clip-rule="nonzero"/></clipPath><clipPath id="926a00adf8"><path d="M 141 125 L 234 125 L 234 189.800781 L 141 189.800781 Z M 141 125 " clip-rule="nonzero"/></clipPath></defs><g clip-path="url(#2406951f30)"><path fill="#ec6408" d="M 187.613281 78.070312 C 173.316406 78.070312 161.730469 89.621094 161.730469 103.871094 C 161.730469 113.9375 174.644531 136.554688 182.230469 148.96875 C 184.683594 152.992188 190.539062 152.992188 192.996094 148.96875 C 200.578125 136.554688 213.492188 113.9375 213.492188 103.871094 C 213.492188 89.621094 201.90625 78.070312 187.613281 78.070312 Z M 187.613281 119.820312 C 179.097656 119.820312 172.191406 112.941406 172.191406 104.449219 C 172.191406 95.960938 179.097656 89.078125 187.613281 89.078125 C 196.128906 89.078125 203.03125 95.960938 203.03125 104.449219 C 203.03125 112.941406 196.128906 119.820312 187.613281 119.820312 Z M 187.613281 119.820312 " fill-opacity="1" fill-rule="nonzero"/></g><path fill="#ec6408" d="M 196.109375 104.449219 C 196.109375 105.007812 196.054688 105.558594 195.945312 106.101562 C 195.835938 106.648438 195.675781 107.179688 195.460938 107.691406 C 195.25 108.207031 194.988281 108.695312 194.675781 109.15625 C 194.367188 109.621094 194.015625 110.046875 193.621094 110.441406 C 193.226562 110.835938 192.796875 111.183594 192.332031 111.496094 C 191.867188 111.804688 191.378906 112.0625 190.863281 112.277344 C 190.347656 112.488281 189.816406 112.652344 189.269531 112.757812 C 188.722656 112.867188 188.167969 112.921875 187.613281 112.921875 C 187.054688 112.921875 186.5 112.867188 185.953125 112.757812 C 185.40625 112.652344 184.875 112.488281 184.359375 112.277344 C 183.84375 112.0625 183.355469 111.804688 182.890625 111.496094 C 182.425781 111.183594 181.996094 110.835938 181.601562 110.441406 C 181.207031 110.046875 180.855469 109.621094 180.546875 109.15625 C 180.234375 108.695312 179.972656 108.207031 179.761719 107.691406 C 179.546875 107.179688 179.386719 106.648438 179.277344 106.101562 C 179.167969 105.558594 179.113281 105.007812 179.113281 104.449219 C 179.113281 103.894531 179.167969 103.34375 179.277344 102.796875 C 179.386719 102.25 179.546875 101.722656 179.761719 101.207031 C 179.972656 100.695312 180.234375 100.207031 180.546875 99.742188 C 180.855469 99.28125 181.207031 98.851562 181.601562 98.460938 C 181.996094 98.066406 182.425781 97.714844 182.890625 97.40625 C 183.355469 97.097656 183.84375 96.835938 184.359375 96.621094 C 184.875 96.410156 185.40625 96.25 185.953125 96.140625 C 186.5 96.03125 187.054688 95.976562 187.613281 95.976562 C 188.167969 95.976562 188.722656 96.03125 189.269531 96.140625 C 189.816406 96.25 190.347656 96.410156 190.863281 96.621094 C 191.378906 96.835938 191.867188 97.097656 192.332031 97.40625 C 192.796875 97.714844 193.226562 98.066406 193.621094 98.460938 C 194.015625 98.851562 194.367188 99.28125 194.675781 99.742188 C 194.988281 100.207031 195.25 100.695312 195.460938 101.207031 C 195.675781 101.722656 195.835938 102.25 195.945312 102.796875 C 196.054688 103.34375 196.109375 103.894531 196.109375 104.449219 Z M 196.109375 104.449219 " fill-opacity="1" fill-rule="nonzero"/><g clip-path="url(#926a00adf8)"><path fill="#ec6408" d="M 233.640625 180.738281 L 225.910156 132.335938 C 225.300781 128.523438 222.003906 125.71875 218.128906 125.71875 L 209.558594 125.71875 C 208.605469 127.710938 207.59375 129.726562 206.554688 131.742188 L 212.394531 131.742188 C 215.539062 131.742188 218.21875 134.019531 218.710938 137.117188 L 220.554688 148.636719 L 217.710938 148.636719 C 211.394531 148.636719 205.375 146.730469 200.300781 143.207031 C 199.304688 144.953125 198.320312 146.648438 197.367188 148.269531 C 197.914062 148.640625 198.472656 148.996094 199.039062 149.339844 L 186.316406 164.070312 L 184.800781 161.75 C 181.984375 157.4375 177.214844 154.863281 172.058594 154.863281 L 164.5 154.863281 L 176.25 145.507812 C 175.289062 143.855469 174.3125 142.136719 173.328125 140.382812 L 155.140625 154.863281 L 153.679688 154.863281 L 156.515625 137.117188 C 157.011719 134.019531 159.6875 131.742188 162.832031 131.742188 L 168.671875 131.742188 C 167.632812 129.726562 166.621094 127.710938 165.667969 125.71875 L 157.097656 125.71875 C 153.222656 125.71875 149.929688 128.527344 149.316406 132.335938 L 141.589844 180.738281 C 140.828125 185.507812 144.523438 189.828125 149.371094 189.828125 L 225.855469 189.828125 C 230.699219 189.828125 234.398438 185.507812 233.640625 180.738281 Z M 204.453125 151.984375 C 208.621094 153.609375 213.101562 154.460938 217.707031 154.460938 L 221.480469 154.460938 L 223.402344 166.480469 L 191.933594 166.480469 Z M 156.554688 183.804688 C 152.617188 183.804688 149.617188 180.296875 150.234375 176.421875 L 152.75 160.683594 L 172.050781 160.683594 C 175.234375 160.683594 178.167969 162.269531 179.90625 164.925781 L 192.246094 183.804688 Z M 218.667969 183.804688 L 199.210938 183.804688 L 191.695312 172.300781 L 224.328125 172.300781 L 224.988281 176.421875 C 225.605469 180.296875 222.605469 183.804688 218.667969 183.804688 Z M 218.667969 183.804688 " fill-opacity="1" fill-rule="nonzero"/></g><g fill="#ffffff" fill-opacity="1"><g transform="translate(92.426468, 253.257053)"><g><path d="M 46 -39.59375 C 46.300781 -39.039062 46.476562 -38.535156 46.53125 -38.078125 C 46.59375 -37.628906 46.625 -36.976562 46.625 -36.125 L 46.625 -4.9375 C 46.625 -2.351562 45.910156 -0.835938 44.484375 -0.390625 C 43.773438 -0.171875 42.875 -0.0625 41.78125 -0.0625 C 40.695312 -0.0625 39.835938 -0.15625 39.203125 -0.34375 C 38.566406 -0.53125 38.078125 -0.753906 37.734375 -1.015625 C 37.398438 -1.273438 37.144531 -1.648438 36.96875 -2.140625 C 36.78125 -2.773438 36.6875 -3.75 36.6875 -5.0625 L 36.6875 -23.875 C 35.75 -22.707031 34.378906 -20.859375 32.578125 -18.328125 C 30.785156 -15.804688 29.644531 -14.226562 29.15625 -13.59375 C 28.664062 -12.957031 28.328125 -12.515625 28.140625 -12.265625 C 27.953125 -12.023438 27.492188 -11.6875 26.765625 -11.25 C 26.035156 -10.820312 25.25 -10.609375 24.40625 -10.609375 C 23.5625 -10.609375 22.789062 -10.804688 22.09375 -11.203125 C 21.40625 -11.597656 20.910156 -11.984375 20.609375 -12.359375 L 20.171875 -12.96875 C 19.421875 -13.90625 17.9375 -15.898438 15.71875 -18.953125 C 13.507812 -22.003906 12.316406 -23.644531 12.140625 -23.875 L 12.140625 -4.9375 C 12.140625 -4.082031 12.109375 -3.4375 12.046875 -3 C 11.992188 -2.570312 11.816406 -2.097656 11.515625 -1.578125 C 10.953125 -0.566406 9.492188 -0.0625 7.140625 -0.0625 C 4.847656 -0.0625 3.421875 -0.566406 2.859375 -1.578125 C 2.566406 -2.097656 2.390625 -2.582031 2.328125 -3.03125 C 2.273438 -3.476562 2.25 -4.15625 2.25 -5.0625 L 2.25 -36.234375 C 2.25 -37.085938 2.273438 -37.726562 2.328125 -38.15625 C 2.390625 -38.59375 2.566406 -39.09375 2.859375 -39.65625 C 3.421875 -40.632812 4.882812 -41.125 7.25 -41.125 C 8.257812 -41.125 9.128906 -41 9.859375 -40.75 C 10.585938 -40.507812 11.066406 -40.257812 11.296875 -40 L 11.625 -39.65625 L 24.375 -22.921875 C 30.738281 -31.347656 34.988281 -36.90625 37.125 -39.59375 C 37.757812 -40.613281 39.265625 -41.125 41.640625 -41.125 C 44.023438 -41.125 45.476562 -40.613281 46 -39.59375 Z M 46 -39.59375 "/></g></g></g><g fill="#ffffff" fill-opacity="1"><g transform="translate(141.292588, 253.257053)"><g><path d="M 1.40625 -14.765625 C 1.40625 -19.265625 2.976562 -22.972656 6.125 -25.890625 C 9.269531 -28.816406 12.863281 -30.28125 16.90625 -30.28125 C 20.945312 -30.28125 24.519531 -28.828125 27.625 -25.921875 C 30.738281 -23.015625 32.296875 -19.316406 32.296875 -14.828125 C 32.296875 -11.722656 31.488281 -8.960938 29.875 -6.546875 C 28.269531 -4.128906 26.316406 -2.347656 24.015625 -1.203125 C 21.710938 -0.0664062 19.320312 0.5 16.84375 0.5 C 14.375 0.5 11.976562 -0.101562 9.65625 -1.3125 C 7.332031 -2.53125 5.375 -4.328125 3.78125 -6.703125 C 2.195312 -9.085938 1.40625 -11.773438 1.40625 -14.765625 Z M 13.140625 -10.75 C 14.335938 -9.832031 15.554688 -9.375 16.796875 -9.375 C 18.035156 -9.375 19.269531 -9.84375 20.5 -10.78125 C 21.738281 -11.71875 22.359375 -13.101562 22.359375 -14.9375 C 22.359375 -16.769531 21.773438 -18.132812 20.609375 -19.03125 C 19.453125 -19.9375 18.195312 -20.390625 16.84375 -20.390625 C 15.5 -20.390625 14.242188 -19.921875 13.078125 -18.984375 C 11.921875 -18.046875 11.34375 -16.671875 11.34375 -14.859375 C 11.34375 -13.046875 11.941406 -11.675781 13.140625 -10.75 Z M 13.140625 -10.75 "/></g></g></g><g fill="#ffffff" fill-opacity="1"><g transform="translate(174.993365, 253.257053)"><g><path d="M 19.4375 -19.65625 L 15.78125 -19.890625 L 15.78125 -12.140625 C 15.78125 -11.117188 15.9375 -10.382812 16.25 -9.9375 C 16.570312 -9.488281 17.171875 -9.265625 18.046875 -9.265625 C 18.929688 -9.265625 19.609375 -9.234375 20.078125 -9.171875 C 20.546875 -9.117188 21.039062 -8.945312 21.5625 -8.65625 C 22.425781 -8.164062 22.859375 -6.910156 22.859375 -4.890625 C 22.859375 -2.523438 22.335938 -1.082031 21.296875 -0.5625 C 20.734375 -0.300781 20.234375 -0.140625 19.796875 -0.078125 C 19.367188 -0.0234375 18.742188 0 17.921875 0 C 14.023438 0 11.066406 -0.878906 9.046875 -2.640625 C 7.023438 -4.398438 6.015625 -7.378906 6.015625 -11.578125 L 6.015625 -19.890625 C 5.296875 -19.773438 4.523438 -19.71875 3.703125 -19.71875 C 2.878906 -19.71875 2.195312 -20.035156 1.65625 -20.671875 C 1.113281 -21.304688 0.84375 -22.390625 0.84375 -23.921875 C 0.84375 -25.460938 0.9375 -26.578125 1.125 -27.265625 C 1.3125 -27.960938 1.570312 -28.460938 1.90625 -28.765625 C 2.507812 -29.242188 3.257812 -29.484375 4.15625 -29.484375 L 6.015625 -29.265625 L 6.015625 -35.046875 C 6.015625 -35.910156 6.039062 -36.546875 6.09375 -36.953125 C 6.144531 -37.367188 6.320312 -37.820312 6.625 -38.3125 C 7.113281 -39.25 8.554688 -39.71875 10.953125 -39.71875 C 13.492188 -39.71875 15.007812 -39.023438 15.5 -37.640625 C 15.6875 -37.035156 15.78125 -36.078125 15.78125 -34.765625 L 15.78125 -29.265625 C 17.425781 -29.410156 18.671875 -29.484375 19.515625 -29.484375 C 20.359375 -29.484375 20.992188 -29.457031 21.421875 -29.40625 C 21.859375 -29.351562 22.359375 -29.175781 22.921875 -28.875 C 23.890625 -28.382812 24.375 -26.941406 24.375 -24.546875 C 24.375 -22.191406 23.867188 -20.75 22.859375 -20.21875 C 22.296875 -19.957031 21.800781 -19.796875 21.375 -19.734375 C 20.945312 -19.679688 20.300781 -19.65625 19.4375 -19.65625 Z M 19.4375 -19.65625 "/></g></g></g><g fill="#ffffff" fill-opacity="1"><g transform="translate(200.212777, 253.257053)"><g><path d="M 2.25 -24.65625 C 2.25 -25.519531 2.273438 -26.164062 2.328125 -26.59375 C 2.390625 -27.03125 2.550781 -27.53125 2.8125 -28.09375 C 3.332031 -29.0625 4.789062 -29.546875 7.1875 -29.546875 C 8.988281 -29.546875 10.265625 -29.226562 11.015625 -28.59375 C 11.648438 -28.070312 11.984375 -27.265625 12.015625 -26.171875 C 12.054688 -25.796875 12.078125 -25.253906 12.078125 -24.546875 L 12.078125 -4.890625 C 12.078125 -4.023438 12.046875 -3.375 11.984375 -2.9375 C 11.929688 -2.507812 11.753906 -2.015625 11.453125 -1.453125 C 10.972656 -0.484375 9.535156 0 7.140625 0 C 4.773438 0 3.332031 -0.503906 2.8125 -1.515625 C 2.550781 -2.078125 2.390625 -2.5625 2.328125 -2.96875 C 2.273438 -3.382812 2.25 -4.039062 2.25 -4.9375 Z M 11.484375 -35.078125 C 11.203125 -34.535156 10.707031 -34.148438 10 -33.921875 C 9.289062 -33.703125 8.34375 -33.59375 7.15625 -33.59375 C 5.976562 -33.59375 5.035156 -33.703125 4.328125 -33.921875 C 3.617188 -34.148438 3.125 -34.546875 2.84375 -35.109375 C 2.5625 -35.671875 2.390625 -36.164062 2.328125 -36.59375 C 2.273438 -37.019531 2.25 -37.664062 2.25 -38.53125 C 2.25 -39.394531 2.273438 -40.039062 2.328125 -40.46875 C 2.390625 -40.90625 2.550781 -41.382812 2.8125 -41.90625 C 3.332031 -42.914062 4.789062 -43.421875 7.1875 -43.421875 C 9.550781 -43.421875 10.972656 -42.914062 11.453125 -41.90625 C 11.753906 -41.34375 11.929688 -40.84375 11.984375 -40.40625 C 12.046875 -39.976562 12.078125 -39.332031 12.078125 -38.46875 C 12.078125 -37.613281 12.046875 -36.96875 11.984375 -36.53125 C 11.929688 -36.101562 11.765625 -35.617188 11.484375 -35.078125 Z M 11.484375 -35.078125 "/></g></g></g><g fill="#ffffff" fill-opacity="1"><g transform="translate(214.535606, 253.257053)"><g><path d="M 32.078125 -28.921875 C 34.023438 -27.765625 35 -26.53125 35 -25.21875 C 35 -24.46875 34.625 -23.4375 33.875 -22.125 L 22.25 -2.1875 C 21.875 -1.550781 21.269531 -0.976562 20.4375 -0.46875 C 19.613281 0.03125 18.800781 0.28125 18 0.28125 C 17.195312 0.28125 16.429688 0.0820312 15.703125 -0.3125 C 14.972656 -0.707031 14.457031 -1.109375 14.15625 -1.515625 L 13.65625 -2.140625 L 1.96875 -22.125 C 1.21875 -23.363281 0.84375 -24.378906 0.84375 -25.171875 C 0.84375 -26.515625 1.816406 -27.765625 3.765625 -28.921875 C 5.179688 -29.753906 6.300781 -30.171875 7.125 -30.171875 C 7.957031 -30.171875 8.609375 -29.914062 9.078125 -29.40625 C 9.546875 -28.894531 10.039062 -28.132812 10.5625 -27.125 L 17.921875 -12.96875 L 25.28125 -27.125 C 25.6875 -27.84375 25.992188 -28.359375 26.203125 -28.671875 C 26.410156 -28.992188 26.738281 -29.3125 27.1875 -29.625 C 27.632812 -29.945312 28.234375 -30.109375 28.984375 -30.109375 C 29.734375 -30.109375 30.765625 -29.710938 32.078125 -28.921875 Z M 32.078125 -28.921875 "/></g></g></g><g fill="#ffffff" fill-opacity="1"><g transform="translate(250.370763, 253.257053)"><g><path d="M 30.78125 -18.34375 C 30.78125 -16.039062 30.207031 -14.335938 29.0625 -13.234375 C 27.925781 -12.128906 26.664062 -11.578125 25.28125 -11.578125 L 11.96875 -11.578125 C 11.96875 -10.523438 12.582031 -9.640625 13.8125 -8.921875 C 15.050781 -8.210938 16.289062 -7.859375 17.53125 -7.859375 C 19.695312 -7.859375 21.398438 -8.082031 22.640625 -8.53125 L 23.25 -8.765625 C 24.15625 -9.171875 24.90625 -9.375 25.5 -9.375 C 26.695312 -9.375 27.726562 -8.535156 28.59375 -6.859375 C 29.082031 -5.847656 29.328125 -4.984375 29.328125 -4.265625 C 29.328125 -0.929688 25.335938 0.734375 17.359375 0.734375 C 14.585938 0.734375 12.125 0.253906 9.96875 -0.703125 C 7.8125 -1.660156 6.132812 -2.925781 4.9375 -4.5 C 2.582031 -7.53125 1.40625 -10.914062 1.40625 -14.65625 C 1.40625 -19.375 2.929688 -23.144531 5.984375 -25.96875 C 9.035156 -28.800781 12.84375 -30.21875 17.40625 -30.21875 C 22.613281 -30.21875 26.4375 -28.382812 28.875 -24.71875 C 30.144531 -22.769531 30.78125 -20.644531 30.78125 -18.34375 Z M 18.9375 -16.6875 C 20.351562 -16.6875 21.0625 -17.285156 21.0625 -18.484375 C 21.0625 -19.335938 20.734375 -20.023438 20.078125 -20.546875 C 19.421875 -21.078125 18.484375 -21.34375 17.265625 -21.34375 C 16.054688 -21.34375 14.851562 -20.847656 13.65625 -19.859375 C 12.457031 -18.867188 11.859375 -17.8125 11.859375 -16.6875 Z M 18.9375 -16.6875 "/></g></g></g><g fill="#ffffff" fill-opacity="1"><g transform="translate(92.40459, 274.417686)"><g><path d="M 3.28125 0 L 1.921875 0 L 1.921875 -5.296875 L 0.1875 -5.296875 L 0.1875 -6.421875 L 5.03125 -6.421875 L 5.03125 -5.296875 L 3.28125 -5.296875 Z M 3.28125 0 "/></g></g></g><g fill="#ffffff" fill-opacity="1"><g transform="translate(100.433504, 274.417686)"><g><path d="M 6.078125 0 L 4.71875 0 L 4.71875 -2.765625 L 2.171875 -2.765625 L 2.171875 0 L 0.8125 0 L 0.8125 -6.421875 L 2.171875 -6.421875 L 2.171875 -3.90625 L 4.71875 -3.90625 L 4.71875 -6.421875 L 6.078125 -6.421875 Z M 6.078125 0 "/></g></g></g><g fill="#ffffff" fill-opacity="1"><g transform="translate(110.136734, 274.417686)"><g><path d="M 4.515625 0 L 0.8125 0 L 0.8125 -6.421875 L 4.515625 -6.421875 L 4.515625 -5.3125 L 2.171875 -5.3125 L 2.171875 -3.890625 L 4.34375 -3.890625 L 4.34375 -2.78125 L 2.171875 -2.78125 L 2.171875 -1.125 L 4.515625 -1.125 Z M 4.515625 0 "/></g></g></g><g fill="#ffffff" fill-opacity="1"><g transform="translate(117.994261, 274.417686)"><g/></g></g><g fill="#ffffff" fill-opacity="1"><g transform="translate(123.149152, 274.417686)"><g><path d="M 4.59375 -1.78125 C 4.59375 -1.40625 4.5 -1.078125 4.3125 -0.796875 C 4.132812 -0.515625 3.867188 -0.296875 3.515625 -0.140625 C 3.160156 0.015625 2.734375 0.09375 2.234375 0.09375 C 2.015625 0.09375 1.796875 0.078125 1.578125 0.046875 C 1.367188 0.015625 1.164062 -0.0234375 0.96875 -0.078125 C 0.769531 -0.140625 0.582031 -0.210938 0.40625 -0.296875 L 0.40625 -1.5625 C 0.71875 -1.425781 1.035156 -1.300781 1.359375 -1.1875 C 1.691406 -1.082031 2.019531 -1.03125 2.34375 -1.03125 C 2.5625 -1.03125 2.738281 -1.0625 2.875 -1.125 C 3.007812 -1.1875 3.109375 -1.265625 3.171875 -1.359375 C 3.234375 -1.460938 3.265625 -1.582031 3.265625 -1.71875 C 3.265625 -1.875 3.207031 -2.007812 3.09375 -2.125 C 2.988281 -2.238281 2.84375 -2.347656 2.65625 -2.453125 C 2.46875 -2.554688 2.253906 -2.660156 2.015625 -2.765625 C 1.867188 -2.835938 1.707031 -2.925781 1.53125 -3.03125 C 1.351562 -3.132812 1.1875 -3.257812 1.03125 -3.40625 C 0.875 -3.550781 0.742188 -3.726562 0.640625 -3.9375 C 0.535156 -4.144531 0.484375 -4.394531 0.484375 -4.6875 C 0.484375 -5.070312 0.570312 -5.398438 0.75 -5.671875 C 0.925781 -5.941406 1.175781 -6.148438 1.5 -6.296875 C 1.832031 -6.441406 2.21875 -6.515625 2.65625 -6.515625 C 3 -6.515625 3.320312 -6.472656 3.625 -6.390625 C 3.925781 -6.316406 4.242188 -6.207031 4.578125 -6.0625 L 4.125 -5 C 3.832031 -5.125 3.566406 -5.21875 3.328125 -5.28125 C 3.097656 -5.351562 2.863281 -5.390625 2.625 -5.390625 C 2.445312 -5.390625 2.296875 -5.359375 2.171875 -5.296875 C 2.054688 -5.242188 1.96875 -5.164062 1.90625 -5.0625 C 1.84375 -4.96875 1.8125 -4.859375 1.8125 -4.734375 C 1.8125 -4.578125 1.859375 -4.445312 1.953125 -4.34375 C 2.046875 -4.238281 2.179688 -4.140625 2.359375 -4.046875 C 2.535156 -3.953125 2.757812 -3.835938 3.03125 -3.703125 C 3.363281 -3.546875 3.644531 -3.382812 3.875 -3.21875 C 4.101562 -3.050781 4.28125 -2.851562 4.40625 -2.625 C 4.53125 -2.40625 4.59375 -2.125 4.59375 -1.78125 Z M 4.59375 -1.78125 "/></g></g></g><g fill="#ffffff" fill-opacity="1"><g transform="translate(130.923183, 274.417686)"><g><path d="M 4.515625 0 L 0.8125 0 L 0.8125 -6.421875 L 4.515625 -6.421875 L 4.515625 -5.3125 L 2.171875 -5.3125 L 2.171875 -3.890625 L 4.34375 -3.890625 L 4.34375 -2.78125 L 2.171875 -2.78125 L 2.171875 -1.125 L 4.515625 -1.125 Z M 4.515625 0 "/></g></g></g><g fill="#ffffff" fill-opacity="1"><g transform="translate(138.78071, 274.417686)"><g><path d="M 3.53125 -5.390625 C 3.269531 -5.390625 3.039062 -5.335938 2.84375 -5.234375 C 2.644531 -5.128906 2.476562 -4.984375 2.34375 -4.796875 C 2.207031 -4.609375 2.101562 -4.378906 2.03125 -4.109375 C 1.957031 -3.835938 1.921875 -3.53125 1.921875 -3.1875 C 1.921875 -2.738281 1.976562 -2.351562 2.09375 -2.03125 C 2.207031 -1.707031 2.378906 -1.460938 2.609375 -1.296875 C 2.847656 -1.128906 3.15625 -1.046875 3.53125 -1.046875 C 3.789062 -1.046875 4.050781 -1.070312 4.3125 -1.125 C 4.582031 -1.1875 4.867188 -1.273438 5.171875 -1.390625 L 5.171875 -0.234375 C 4.890625 -0.117188 4.609375 -0.0351562 4.328125 0.015625 C 4.054688 0.0664062 3.75 0.09375 3.40625 0.09375 C 2.75 0.09375 2.207031 -0.0390625 1.78125 -0.3125 C 1.351562 -0.59375 1.035156 -0.976562 0.828125 -1.46875 C 0.617188 -1.96875 0.515625 -2.546875 0.515625 -3.203125 C 0.515625 -3.691406 0.582031 -4.132812 0.71875 -4.53125 C 0.851562 -4.9375 1.046875 -5.285156 1.296875 -5.578125 C 1.554688 -5.878906 1.875 -6.109375 2.25 -6.265625 C 2.625 -6.429688 3.050781 -6.515625 3.53125 -6.515625 C 3.851562 -6.515625 4.175781 -6.472656 4.5 -6.390625 C 4.820312 -6.316406 5.128906 -6.207031 5.421875 -6.0625 L 4.984375 -4.953125 C 4.742188 -5.066406 4.5 -5.164062 4.25 -5.25 C 4.007812 -5.34375 3.769531 -5.390625 3.53125 -5.390625 Z M 3.53125 -5.390625 "/></g></g></g><g fill="#ffffff" fill-opacity="1"><g transform="translate(147.332576, 274.417686)"><g><path d="M 2.6875 -6.421875 C 3.269531 -6.421875 3.75 -6.347656 4.125 -6.203125 C 4.5 -6.066406 4.78125 -5.859375 4.96875 -5.578125 C 5.15625 -5.296875 5.25 -4.9375 5.25 -4.5 C 5.25 -4.207031 5.191406 -3.953125 5.078125 -3.734375 C 4.960938 -3.515625 4.816406 -3.328125 4.640625 -3.171875 C 4.460938 -3.015625 4.265625 -2.890625 4.046875 -2.796875 L 5.9375 0 L 4.4375 0 L 2.890625 -2.46875 L 2.171875 -2.46875 L 2.171875 0 L 0.8125 0 L 0.8125 -6.421875 Z M 2.578125 -5.3125 L 2.171875 -5.3125 L 2.171875 -3.578125 L 2.609375 -3.578125 C 3.054688 -3.578125 3.378906 -3.648438 3.578125 -3.796875 C 3.773438 -3.953125 3.875 -4.175781 3.875 -4.46875 C 3.875 -4.769531 3.769531 -4.984375 3.5625 -5.109375 C 3.351562 -5.242188 3.023438 -5.3125 2.578125 -5.3125 Z M 2.578125 -5.3125 "/></g></g></g><g fill="#ffffff" fill-opacity="1"><g transform="translate(156.090979, 274.417686)"><g><path d="M 4.515625 0 L 0.8125 0 L 0.8125 -6.421875 L 4.515625 -6.421875 L 4.515625 -5.3125 L 2.171875 -5.3125 L 2.171875 -3.890625 L 4.34375 -3.890625 L 4.34375 -2.78125 L 2.171875 -2.78125 L 2.171875 -1.125 L 4.515625 -1.125 Z M 4.515625 0 "/></g></g></g><g fill="#ffffff" fill-opacity="1"><g transform="translate(163.948504, 274.417686)"><g><path d="M 3.28125 0 L 1.921875 0 L 1.921875 -5.296875 L 0.1875 -5.296875 L 0.1875 -6.421875 L 5.03125 -6.421875 L 5.03125 -5.296875 L 3.28125 -5.296875 Z M 3.28125 0 "/></g></g></g><g fill="#ffffff" fill-opacity="1"><g transform="translate(171.977415, 274.417686)"><g/></g></g><g fill="#ffffff" fill-opacity="1"><g transform="translate(177.132302, 274.417686)"><g><path d="M 0.8125 0 L 0.8125 -6.421875 L 2.171875 -6.421875 L 2.171875 -1.125 L 4.78125 -1.125 L 4.78125 0 Z M 0.8125 0 "/></g></g></g><g fill="#ffffff" fill-opacity="1"><g transform="translate(185.033772, 274.417686)"><g><path d="M 6.640625 -3.21875 C 6.640625 -2.726562 6.578125 -2.28125 6.453125 -1.875 C 6.328125 -1.46875 6.140625 -1.113281 5.890625 -0.8125 C 5.640625 -0.519531 5.320312 -0.296875 4.9375 -0.140625 C 4.5625 0.015625 4.109375 0.09375 3.578125 0.09375 C 3.054688 0.09375 2.601562 0.015625 2.21875 -0.140625 C 1.832031 -0.296875 1.515625 -0.519531 1.265625 -0.8125 C 1.015625 -1.113281 0.828125 -1.46875 0.703125 -1.875 C 0.578125 -2.28125 0.515625 -2.734375 0.515625 -3.234375 C 0.515625 -3.898438 0.625 -4.476562 0.84375 -4.96875 C 1.0625 -5.457031 1.398438 -5.835938 1.859375 -6.109375 C 2.316406 -6.390625 2.894531 -6.53125 3.59375 -6.53125 C 4.289062 -6.53125 4.863281 -6.390625 5.3125 -6.109375 C 5.757812 -5.835938 6.09375 -5.453125 6.3125 -4.953125 C 6.53125 -4.460938 6.640625 -3.882812 6.640625 -3.21875 Z M 1.953125 -3.21875 C 1.953125 -2.769531 2.007812 -2.382812 2.125 -2.0625 C 2.238281 -1.738281 2.414062 -1.488281 2.65625 -1.3125 C 2.894531 -1.144531 3.203125 -1.0625 3.578125 -1.0625 C 3.960938 -1.0625 4.273438 -1.144531 4.515625 -1.3125 C 4.753906 -1.488281 4.929688 -1.738281 5.046875 -2.0625 C 5.160156 -2.382812 5.21875 -2.769531 5.21875 -3.21875 C 5.21875 -3.894531 5.085938 -4.425781 4.828125 -4.8125 C 4.578125 -5.195312 4.164062 -5.390625 3.59375 -5.390625 C 3.207031 -5.390625 2.894531 -5.300781 2.65625 -5.125 C 2.414062 -4.957031 2.238281 -4.707031 2.125 -4.375 C 2.007812 -4.050781 1.953125 -3.664062 1.953125 -3.21875 Z M 1.953125 -3.21875 "/></g></g></g><g fill="#ffffff" fill-opacity="1"><g transform="translate(195.013855, 274.417686)"><g><path d="M 3.53125 -5.390625 C 3.269531 -5.390625 3.039062 -5.335938 2.84375 -5.234375 C 2.644531 -5.128906 2.476562 -4.984375 2.34375 -4.796875 C 2.207031 -4.609375 2.101562 -4.378906 2.03125 -4.109375 C 1.957031 -3.835938 1.921875 -3.53125 1.921875 -3.1875 C 1.921875 -2.738281 1.976562 -2.351562 2.09375 -2.03125 C 2.207031 -1.707031 2.378906 -1.460938 2.609375 -1.296875 C 2.847656 -1.128906 3.15625 -1.046875 3.53125 -1.046875 C 3.789062 -1.046875 4.050781 -1.070312 4.3125 -1.125 C 4.582031 -1.1875 4.867188 -1.273438 5.171875 -1.390625 L 5.171875 -0.234375 C 4.890625 -0.117188 4.609375 -0.0351562 4.328125 0.015625 C 4.054688 0.0664062 3.75 0.09375 3.40625 0.09375 C 2.75 0.09375 2.207031 -0.0390625 1.78125 -0.3125 C 1.351562 -0.59375 1.035156 -0.976562 0.828125 -1.46875 C 0.617188 -1.96875 0.515625 -2.546875 0.515625 -3.203125 C 0.515625 -3.691406 0.582031 -4.132812 0.71875 -4.53125 C 0.851562 -4.9375 1.046875 -5.285156 1.296875 -5.578125 C 1.554688 -5.878906 1.875 -6.109375 2.25 -6.265625 C 2.625 -6.429688 3.050781 -6.515625 3.53125 -6.515625 C 3.851562 -6.515625 4.175781 -6.472656 4.5 -6.390625 C 4.820312 -6.316406 5.128906 -6.207031 5.421875 -6.0625 L 4.984375 -4.953125 C 4.742188 -5.066406 4.5 -5.164062 4.25 -5.25 C 4.007812 -5.34375 3.769531 -5.390625 3.53125 -5.390625 Z M 3.53125 -5.390625 "/></g></g></g><g fill="#ffffff" fill-opacity="1"><g transform="translate(203.565715, 274.417686)"><g><path d="M 4.734375 0 L 4.28125 -1.53125 L 1.9375 -1.53125 L 1.46875 0 L 0 0 L 2.265625 -6.453125 L 3.9375 -6.453125 L 6.203125 0 Z M 3.953125 -2.671875 L 3.484375 -4.171875 C 3.453125 -4.265625 3.410156 -4.390625 3.359375 -4.546875 C 3.316406 -4.703125 3.269531 -4.863281 3.21875 -5.03125 C 3.175781 -5.195312 3.140625 -5.335938 3.109375 -5.453125 C 3.078125 -5.335938 3.035156 -5.1875 2.984375 -5 C 2.929688 -4.820312 2.878906 -4.65625 2.828125 -4.5 C 2.785156 -4.34375 2.753906 -4.234375 2.734375 -4.171875 L 2.28125 -2.671875 Z M 3.953125 -2.671875 "/></g></g></g><g fill="#ffffff" fill-opacity="1"><g transform="translate(212.592185, 274.417686)"><g><path d="M 3.28125 0 L 1.921875 0 L 1.921875 -5.296875 L 0.1875 -5.296875 L 0.1875 -6.421875 L 5.03125 -6.421875 L 5.03125 -5.296875 L 3.28125 -5.296875 Z M 3.28125 0 "/></g></g></g><g fill="#ffffff" fill-opacity="1"><g transform="translate(220.621096, 274.417686)"><g><path d="M 0.8125 0 L 0.8125 -6.421875 L 2.171875 -6.421875 L 2.171875 0 Z M 0.8125 0 "/></g></g></g><g fill="#ffffff" fill-opacity="1"><g transform="translate(226.417585, 274.417686)"><g><path d="M 6.640625 -3.21875 C 6.640625 -2.726562 6.578125 -2.28125 6.453125 -1.875 C 6.328125 -1.46875 6.140625 -1.113281 5.890625 -0.8125 C 5.640625 -0.519531 5.320312 -0.296875 4.9375 -0.140625 C 4.5625 0.015625 4.109375 0.09375 3.578125 0.09375 C 3.054688 0.09375 2.601562 0.015625 2.21875 -0.140625 C 1.832031 -0.296875 1.515625 -0.519531 1.265625 -0.8125 C 1.015625 -1.113281 0.828125 -1.46875 0.703125 -1.875 C 0.578125 -2.28125 0.515625 -2.734375 0.515625 -3.234375 C 0.515625 -3.898438 0.625 -4.476562 0.84375 -4.96875 C 1.0625 -5.457031 1.398438 -5.835938 1.859375 -6.109375 C 2.316406 -6.390625 2.894531 -6.53125 3.59375 -6.53125 C 4.289062 -6.53125 4.863281 -6.390625 5.3125 -6.109375 C 5.757812 -5.835938 6.09375 -5.453125 6.3125 -4.953125 C 6.53125 -4.460938 6.640625 -3.882812 6.640625 -3.21875 Z M 1.953125 -3.21875 C 1.953125 -2.769531 2.007812 -2.382812 2.125 -2.0625 C 2.238281 -1.738281 2.414062 -1.488281 2.65625 -1.3125 C 2.894531 -1.144531 3.203125 -1.0625 3.578125 -1.0625 C 3.960938 -1.0625 4.273438 -1.144531 4.515625 -1.3125 C 4.753906 -1.488281 4.929688 -1.738281 5.046875 -2.0625 C 5.160156 -2.382812 5.21875 -2.769531 5.21875 -3.21875 C 5.21875 -3.894531 5.085938 -4.425781 4.828125 -4.8125 C 4.578125 -5.195312 4.164062 -5.390625 3.59375 -5.390625 C 3.207031 -5.390625 2.894531 -5.300781 2.65625 -5.125 C 2.414062 -4.957031 2.238281 -4.707031 2.125 -4.375 C 2.007812 -4.050781 1.953125 -3.664062 1.953125 -3.21875 Z M 1.953125 -3.21875 "/></g></g></g><g fill="#ffffff" fill-opacity="1"><g transform="translate(236.397668, 274.417686)"><g><path d="M 6.515625 0 L 4.78125 0 L 1.984375 -4.859375 L 1.9375 -4.859375 C 1.945312 -4.660156 1.957031 -4.457031 1.96875 -4.25 C 1.976562 -4.039062 1.988281 -3.832031 2 -3.625 C 2.007812 -3.425781 2.019531 -3.226562 2.03125 -3.03125 L 2.03125 0 L 0.8125 0 L 0.8125 -6.421875 L 2.53125 -6.421875 L 5.3125 -1.609375 L 5.34375 -1.609375 C 5.34375 -1.804688 5.335938 -2.003906 5.328125 -2.203125 C 5.316406 -2.398438 5.304688 -2.597656 5.296875 -2.796875 C 5.296875 -2.992188 5.289062 -3.191406 5.28125 -3.390625 L 5.28125 -6.421875 L 6.515625 -6.421875 Z M 6.515625 0 "/></g></g></g><g fill="#ffffff" fill-opacity="1"><g transform="translate(246.53156, 274.417686)"><g><path d="M 4.59375 -1.78125 C 4.59375 -1.40625 4.5 -1.078125 4.3125 -0.796875 C 4.132812 -0.515625 3.867188 -0.296875 3.515625 -0.140625 C 3.160156 0.015625 2.734375 0.09375 2.234375 0.09375 C 2.015625 0.09375 1.796875 0.078125 1.578125 0.046875 C 1.367188 0.015625 1.164062 -0.0234375 0.96875 -0.078125 C 0.769531 -0.140625 0.582031 -0.210938 0.40625 -0.296875 L 0.40625 -1.5625 C 0.71875 -1.425781 1.035156 -1.300781 1.359375 -1.1875 C 1.691406 -1.082031 2.019531 -1.03125 2.34375 -1.03125 C 2.5625 -1.03125 2.738281 -1.0625 2.875 -1.125 C 3.007812 -1.1875 3.109375 -1.265625 3.171875 -1.359375 C 3.234375 -1.460938 3.265625 -1.582031 3.265625 -1.71875 C 3.265625 -1.875 3.207031 -2.007812 3.09375 -2.125 C 2.988281 -2.238281 2.84375 -2.347656 2.65625 -2.453125 C 2.46875 -2.554688 2.253906 -2.660156 2.015625 -2.765625 C 1.867188 -2.835938 1.707031 -2.925781 1.53125 -3.03125 C 1.351562 -3.132812 1.1875 -3.257812 1.03125 -3.40625 C 0.875 -3.550781 0.742188 -3.726562 0.640625 -3.9375 C 0.535156 -4.144531 0.484375 -4.394531 0.484375 -4.6875 C 0.484375 -5.070312 0.570312 -5.398438 0.75 -5.671875 C 0.925781 -5.941406 1.175781 -6.148438 1.5 -6.296875 C 1.832031 -6.441406 2.21875 -6.515625 2.65625 -6.515625 C 3 -6.515625 3.320312 -6.472656 3.625 -6.390625 C 3.925781 -6.316406 4.242188 -6.207031 4.578125 -6.0625 L 4.125 -5 C 3.832031 -5.125 3.566406 -5.21875 3.328125 -5.28125 C 3.097656 -5.351562 2.863281 -5.390625 2.625 -5.390625 C 2.445312 -5.390625 2.296875 -5.359375 2.171875 -5.296875 C 2.054688 -5.242188 1.96875 -5.164062 1.90625 -5.0625 C 1.84375 -4.96875 1.8125 -4.859375 1.8125 -4.734375 C 1.8125 -4.578125 1.859375 -4.445312 1.953125 -4.34375 C 2.046875 -4.238281 2.179688 -4.140625 2.359375 -4.046875 C 2.535156 -3.953125 2.757812 -3.835938 3.03125 -3.703125 C 3.363281 -3.546875 3.644531 -3.382812 3.875 -3.21875 C 4.101562 -3.050781 4.28125 -2.851562 4.40625 -2.625 C 4.53125 -2.40625 4.59375 -2.125 4.59375 -1.78125 Z M 4.59375 -1.78125 "/></g></g></g><g fill="#ffffff" fill-opacity="1"><g transform="translate(254.305588, 274.417686)"><g/></g></g><g fill="#ffffff" fill-opacity="1"><g transform="translate(259.460476, 274.417686)"><g><path d="M 4.734375 0 L 4.28125 -1.53125 L 1.9375 -1.53125 L 1.46875 0 L 0 0 L 2.265625 -6.453125 L 3.9375 -6.453125 L 6.203125 0 Z M 3.953125 -2.671875 L 3.484375 -4.171875 C 3.453125 -4.265625 3.410156 -4.390625 3.359375 -4.546875 C 3.316406 -4.703125 3.269531 -4.863281 3.21875 -5.03125 C 3.175781 -5.195312 3.140625 -5.335938 3.109375 -5.453125 C 3.078125 -5.335938 3.035156 -5.1875 2.984375 -5 C 2.929688 -4.820312 2.878906 -4.65625 2.828125 -4.5 C 2.785156 -4.34375 2.753906 -4.234375 2.734375 -4.171875 L 2.28125 -2.671875 Z M 3.953125 -2.671875 "/></g></g></g><g fill="#ffffff" fill-opacity="1"><g transform="translate(268.486945, 274.417686)"><g><path d="M 2.859375 -6.421875 C 3.691406 -6.421875 4.296875 -6.242188 4.671875 -5.890625 C 5.054688 -5.535156 5.25 -5.046875 5.25 -4.421875 C 5.25 -4.140625 5.207031 -3.867188 5.125 -3.609375 C 5.039062 -3.359375 4.898438 -3.128906 4.703125 -2.921875 C 4.515625 -2.722656 4.257812 -2.566406 3.9375 -2.453125 C 3.613281 -2.335938 3.21875 -2.28125 2.75 -2.28125 L 2.171875 -2.28125 L 2.171875 0 L 0.8125 0 L 0.8125 -6.421875 Z M 2.796875 -5.3125 L 2.171875 -5.3125 L 2.171875 -3.40625 L 2.625 -3.40625 C 2.875 -3.40625 3.09375 -3.4375 3.28125 -3.5 C 3.46875 -3.570312 3.613281 -3.675781 3.71875 -3.8125 C 3.820312 -3.957031 3.875 -4.144531 3.875 -4.375 C 3.875 -4.6875 3.785156 -4.921875 3.609375 -5.078125 C 3.429688 -5.234375 3.160156 -5.3125 2.796875 -5.3125 Z M 2.796875 -5.3125 "/></g></g></g><g fill="#ffffff" fill-opacity="1"><g transform="translate(276.955309, 274.417686)"><g><path d="M 2.859375 -6.421875 C 3.691406 -6.421875 4.296875 -6.242188 4.671875 -5.890625 C 5.054688 -5.535156 5.25 -5.046875 5.25 -4.421875 C 5.25 -4.140625 5.207031 -3.867188 5.125 -3.609375 C 5.039062 -3.359375 4.898438 -3.128906 4.703125 -2.921875 C 4.515625 -2.722656 4.257812 -2.566406 3.9375 -2.453125 C 3.613281 -2.335938 3.21875 -2.28125 2.75 -2.28125 L 2.171875 -2.28125 L 2.171875 0 L 0.8125 0 L 0.8125 -6.421875 Z M 2.796875 -5.3125 L 2.171875 -5.3125 L 2.171875 -3.40625 L 2.625 -3.40625 C 2.875 -3.40625 3.09375 -3.4375 3.28125 -3.5 C 3.46875 -3.570312 3.613281 -3.675781 3.71875 -3.8125 C 3.820312 -3.957031 3.875 -4.144531 3.875 -4.375 C 3.875 -4.6875 3.785156 -4.921875 3.609375 -5.078125 C 3.429688 -5.234375 3.160156 -5.3125 2.796875 -5.3125 Z M 2.796875 -5.3125 "/></g></g></g></svg>