<svg xmlns="http://www.w3.org/2000/svg" xmlns:xlink="http://www.w3.org/1999/xlink" width="1024" zoomAndPan="magnify" viewBox="0 0 768 767.999994" height="1024" preserveAspectRatio="xMidYMid meet" version="1.0"><defs><clipPath id="4ac0e5acc9"><path d="M 242 76.800781 L 526 76.800781 L 526 484 L 242 484 Z M 242 76.800781 " clip-rule="nonzero"/></clipPath><clipPath id="c8f230eb32"><path d="M 131 338 L 637 338 L 637 691.050781 L 131 691.050781 Z M 131 338 " clip-rule="nonzero"/></clipPath></defs><g clip-path="url(#4ac0e5acc9)"><path fill="#ec6408" d="M 384.066406 76.894531 C 305.734375 76.894531 242.238281 140.390625 242.238281 218.71875 C 242.238281 274.054688 313.007812 398.371094 354.566406 466.613281 C 368.027344 488.714844 400.101562 488.714844 413.5625 466.613281 C 455.121094 398.371094 525.890625 274.054688 525.890625 218.71875 C 525.890625 140.390625 462.394531 76.894531 384.066406 76.894531 Z M 384.066406 306.390625 C 337.398438 306.390625 299.570312 268.5625 299.570312 221.898438 C 299.570312 175.234375 337.398438 137.40625 384.066406 137.40625 C 430.730469 137.40625 468.558594 175.234375 468.558594 221.898438 C 468.558594 268.5625 430.730469 306.390625 384.066406 306.390625 Z M 384.066406 306.390625 " fill-opacity="1" fill-rule="nonzero"/></g><path fill="#ec6408" d="M 430.632812 221.898438 C 430.632812 223.425781 430.558594 224.945312 430.410156 226.464844 C 430.261719 227.980469 430.035156 229.488281 429.738281 230.984375 C 429.441406 232.480469 429.070312 233.957031 428.628906 235.417969 C 428.1875 236.875 427.671875 238.3125 427.089844 239.71875 C 426.503906 241.128906 425.855469 242.507812 425.136719 243.851562 C 424.417969 245.195312 423.632812 246.503906 422.785156 247.769531 C 421.9375 249.039062 421.03125 250.261719 420.0625 251.441406 C 419.09375 252.621094 418.074219 253.75 416.992188 254.828125 C 415.914062 255.90625 414.785156 256.929688 413.609375 257.898438 C 412.429688 258.863281 411.207031 259.773438 409.9375 260.617188 C 408.667969 261.464844 407.363281 262.25 406.015625 262.96875 C 404.671875 263.6875 403.296875 264.339844 401.886719 264.921875 C 400.476562 265.507812 399.042969 266.019531 397.582031 266.460938 C 396.125 266.90625 394.644531 267.273438 393.148438 267.574219 C 391.652344 267.871094 390.148438 268.09375 388.628906 268.242188 C 387.109375 268.390625 385.589844 268.46875 384.066406 268.46875 C 382.539062 268.46875 381.019531 268.390625 379.5 268.242188 C 377.980469 268.09375 376.476562 267.871094 374.980469 267.574219 C 373.484375 267.273438 372.003906 266.90625 370.546875 266.460938 C 369.085938 266.019531 367.652344 265.507812 366.242188 264.921875 C 364.832031 264.339844 363.457031 263.6875 362.113281 262.96875 C 360.765625 262.25 359.460938 261.464844 358.191406 260.617188 C 356.921875 259.773438 355.699219 258.863281 354.519531 257.898438 C 353.34375 256.929688 352.214844 255.90625 351.136719 254.828125 C 350.054688 253.75 349.035156 252.621094 348.066406 251.441406 C 347.097656 250.261719 346.191406 249.039062 345.34375 247.769531 C 344.496094 246.503906 343.710938 245.195312 342.992188 243.851562 C 342.273438 242.507812 341.625 241.128906 341.039062 239.71875 C 340.457031 238.3125 339.941406 236.875 339.5 235.417969 C 339.058594 233.957031 338.6875 232.480469 338.390625 230.984375 C 338.09375 229.488281 337.867188 227.980469 337.71875 226.464844 C 337.570312 224.945312 337.496094 223.425781 337.496094 221.898438 C 337.496094 220.375 337.570312 218.851562 337.71875 217.335938 C 337.867188 215.816406 338.09375 214.308594 338.390625 212.8125 C 338.6875 211.316406 339.058594 209.839844 339.5 208.378906 C 339.941406 206.921875 340.457031 205.488281 341.039062 204.078125 C 341.625 202.667969 342.273438 201.292969 342.992188 199.945312 C 343.710938 198.601562 344.496094 197.292969 345.34375 196.027344 C 346.191406 194.757812 347.097656 193.535156 348.066406 192.355469 C 349.035156 191.175781 350.054688 190.046875 351.136719 188.96875 C 352.214844 187.890625 353.34375 186.867188 354.519531 185.902344 C 355.699219 184.933594 356.921875 184.027344 358.191406 183.179688 C 359.460938 182.332031 360.765625 181.546875 362.113281 180.828125 C 363.457031 180.109375 364.832031 179.457031 366.242188 178.875 C 367.652344 178.292969 369.085938 177.777344 370.546875 177.335938 C 372.003906 176.894531 373.484375 176.523438 374.980469 176.226562 C 376.476562 175.925781 377.980469 175.703125 379.5 175.554688 C 381.019531 175.40625 382.539062 175.332031 384.066406 175.332031 C 385.589844 175.332031 387.109375 175.40625 388.628906 175.554688 C 390.148438 175.703125 391.652344 175.925781 393.148438 176.226562 C 394.644531 176.523438 396.125 176.894531 397.582031 177.335938 C 399.042969 177.777344 400.476562 178.292969 401.886719 178.875 C 403.296875 179.457031 404.671875 180.109375 406.015625 180.828125 C 407.363281 181.546875 408.667969 182.332031 409.9375 183.179688 C 411.207031 184.027344 412.429688 184.933594 413.609375 185.902344 C 414.785156 186.867188 415.914062 187.890625 416.992188 188.96875 C 418.074219 190.046875 419.09375 191.175781 420.0625 192.355469 C 421.03125 193.535156 421.9375 194.757812 422.785156 196.027344 C 423.632812 197.292969 424.417969 198.601562 425.136719 199.945312 C 425.855469 201.292969 426.503906 202.667969 427.089844 204.078125 C 427.671875 205.488281 428.1875 206.921875 428.628906 208.378906 C 429.070312 209.839844 429.441406 211.316406 429.738281 212.8125 C 430.035156 214.308594 430.261719 215.816406 430.410156 217.335938 C 430.558594 218.851562 430.632812 220.375 430.632812 221.898438 Z M 430.632812 221.898438 " fill-opacity="1" fill-rule="nonzero"/><g clip-path="url(#c8f230eb32)"><path fill="#ec6408" d="M 636.296875 641.230469 L 593.941406 375.183594 C 590.59375 354.210938 572.535156 338.800781 551.296875 338.800781 L 504.339844 338.800781 C 499.117188 349.757812 493.578125 360.832031 487.871094 371.910156 L 519.871094 371.910156 C 537.113281 371.910156 551.800781 384.429688 554.5 401.453125 L 564.585938 464.78125 L 549.007812 464.78125 C 514.40625 464.78125 481.417969 454.308594 453.605469 434.925781 C 448.140625 444.53125 442.746094 453.851562 437.519531 462.757812 C 440.53125 464.804688 443.589844 466.757812 446.695312 468.632812 L 376.960938 549.609375 L 368.652344 536.847656 C 353.21875 513.15625 327.09375 498.996094 298.824219 498.996094 L 257.40625 498.996094 L 321.796875 447.589844 C 316.546875 438.488281 311.175781 429.046875 305.78125 419.417969 L 206.117188 498.996094 L 198.125 498.996094 L 213.65625 401.453125 C 216.375 384.429688 231.039062 371.910156 248.28125 371.910156 L 280.28125 371.910156 C 274.574219 360.832031 269.039062 349.757812 263.8125 338.800781 L 216.855469 338.800781 C 195.621094 338.800781 177.558594 354.234375 174.210938 375.183594 L 131.855469 641.230469 C 127.691406 667.453125 147.941406 691.195312 174.5 691.195312 L 593.652344 691.195312 C 620.1875 691.195312 640.460938 667.453125 636.296875 641.230469 Z M 476.359375 483.179688 C 499.1875 492.109375 523.75 496.78125 548.984375 496.78125 L 569.667969 496.78125 L 580.191406 562.855469 L 407.757812 562.855469 Z M 213.871094 658.085938 C 192.296875 658.085938 175.851562 638.800781 179.246094 617.511719 L 193.019531 531 L 298.800781 531 C 316.234375 531 332.316406 539.714844 341.828125 554.304688 L 409.46875 658.085938 Z M 554.257812 658.085938 L 447.632812 658.085938 L 406.433594 594.855469 L 585.273438 594.855469 L 588.882812 617.511719 C 592.277344 638.800781 575.832031 658.085938 554.257812 658.085938 Z M 554.257812 658.085938 " fill-opacity="1" fill-rule="nonzero"/></g></svg>